<svg width="73" height="18" viewBox="0 0 73 18" fill="none" xmlns="http://www.w3.org/2000/svg" role="img" aria-labelledby="luma-logo-title" class="w-20"><title id="luma-logo-title">Luma company logo</title><path d="M65.8574 17.19C63.7493 17.19 61.9741 16.1693 61.9741 13.7284C61.9741 11.0212 64.4594 10.0004 68.0098 10.0004H69.319V9.53441C69.319 8.15863 68.8974 7.40417 67.4329 7.40417C66.168 7.40417 65.5911 8.04768 65.458 9.04623H62.4179C62.6176 6.29467 64.7923 5.07422 67.6326 5.07422C70.4729 5.07422 72.4922 6.2281 72.4922 9.37908V16.9459H69.3634V15.5479C68.6977 16.4799 67.6769 17.19 65.8574 17.19ZM66.8115 14.9488C68.2317 14.9488 69.319 14.1722 69.319 12.8851V11.9088H68.0764C66.2124 11.9088 65.1251 12.3082 65.1251 13.5508C65.1251 14.3941 65.6355 14.9488 66.8115 14.9488Z" fill="currentColor"></path><path d="M43.7686 16.9459V5.3405H46.9861V7.1157C47.563 6.02839 48.8057 5.07422 50.5365 5.07422C52.0676 5.07422 53.2215 5.71773 53.7762 7.09351C54.7082 5.69554 56.2171 5.07422 57.6817 5.07422C59.8341 5.07422 61.4984 6.42781 61.4984 9.51222V16.9459H58.303V9.86726C58.303 8.38053 57.6373 7.71483 56.4834 7.71483C55.2408 7.71483 54.2422 8.51367 54.2422 10.0892V16.9459H51.0469V9.86726C51.0469 8.38053 50.359 7.71483 49.2273 7.71483C47.9847 7.71483 46.9861 8.51367 46.9861 10.0892V16.9459H43.7686Z" fill="currentColor"></path><path d="M35.9816 17.19C33.7182 17.19 32.0317 15.8586 32.0317 12.8186V5.34058H35.2271V12.3748C35.2271 13.9503 35.8706 14.7048 37.2464 14.7048C38.6 14.7048 39.6651 13.8615 39.6651 12.1529V5.34058H42.8605V16.9459H39.6651V15.1264C39.066 16.3024 37.8899 17.19 35.9816 17.19Z" fill="currentColor"></path><path d="M21.54 16.946V1.08008H25.1348V14.1278H31.5921V16.946H21.54Z" fill="currentColor"></path><path d="M0 13.5L7.785 18V0L0 4.5V13.5Z" fill="currentColor" fill-opacity="0.65"></path><path d="M7.785 18L15.57 13.5L7.785 9L0 13.5L7.785 18Z" fill="currentColor" fill-opacity="0.65"></path></svg>