<svg width="200" height="33" viewBox="0 0 200 33" fill="none" xmlns="http://www.w3.org/2000/svg">
<path d="M0 23.9087H21.4283L14.2856 16.9639H7.14278V10.0192L0 3.07438V23.9087Z" fill="#303030"/>
<path d="M27.102 23.339L28.3359 23.1718C29.4332 23.038 29.81 22.8386 29.81 22.5711V4.34024C29.81 4.0727 29.6052 3.94141 28.0274 3.7742L27.1362 3.64044L27.0325 3.0744H38.4142L38.3105 3.64044L36.8706 3.80765C35.9793 3.87329 35.3965 4.0727 35.3965 4.40712V23.0392L36.5962 23.2065C40.0235 23.2065 42.1499 21.8068 44.447 16.9404L44.8237 16.1403H45.8869L44.9274 23.9075H26.9996L27.102 23.339Z" fill="#303030"/>
<path d="M48.4771 23.3392L48.9575 23.3058C49.9524 23.2401 50.3291 23.1386 50.3291 22.7397V14.0077C50.3291 11.9405 50.0535 11.6754 48.8892 11.3398L48.2027 11.1725L55.2975 8.92698V22.7695C55.2975 23.0704 55.5023 23.1361 56.9422 23.3021L57.2507 23.3355L57.3543 23.9015H48.3734L48.4758 23.3355V23.3392H48.4771ZM49.6768 4.24015C49.6768 2.8071 50.8411 1.44094 52.6237 1.44094C54.4062 1.44094 55.6072 2.80834 55.6072 4.24015C55.6072 5.6732 54.477 7.07281 52.6237 7.07281C50.7716 7.07281 49.6768 5.67196 49.6768 4.24015Z" fill="#303030"/>
<path d="M59.6702 21.9039C59.6702 20.1042 61.521 18.7702 63.545 18.2042V18.1707C61.5906 17.5044 60.2556 16.2373 60.2556 13.9385C60.2556 11.273 62.9976 8.77108 67.0431 8.77108C68.5867 8.77108 70.2314 9.1377 71.2946 9.73842L76.2997 9.20583L76.024 11.3387L72.5968 10.8383L72.5626 10.9386C73.3161 11.5728 73.7636 12.5054 73.7636 13.5384C73.7636 16.5048 70.952 18.6043 66.8042 18.6043C65.947 18.6043 65.1594 18.5361 64.4388 18.4024C63.5476 18.6365 62.9319 19.2694 62.9319 19.9035C62.9319 20.7024 63.7195 21.0703 65.5362 21.0703C66.5994 21.0703 69.1012 20.97 70.4034 20.97C73.4539 20.97 75.5803 22.6371 75.5803 25.3026C75.5803 28.8685 71.5702 31.9352 65.9129 31.9352C61.4566 31.9352 59.2619 30.8341 59.2619 28.6022C59.2619 26.8359 61.2846 25.9367 63.3415 25.1688C61.32 24.9335 59.6728 23.5016 59.6728 21.9014H59.6702V21.9039ZM72.3566 27.6039C72.3566 25.9033 71.1897 25.3707 68.7574 25.2035C68.0039 25.1031 66.4262 25.17 64.1986 25.2691C63.2037 25.7039 62.9306 26.5696 62.9306 27.7698C62.9306 29.5695 64.7132 30.9357 67.6942 30.9357C70.4729 30.9369 72.3566 29.5039 72.3566 27.6039ZM69.1012 13.8035C69.1012 10.9374 68.3136 9.50309 67.009 9.50309C65.6032 9.50309 65.0204 10.6376 65.0204 13.77C65.0204 16.6683 65.7397 17.9367 67.009 17.9367C68.4489 17.9379 69.1012 16.8368 69.1012 13.8035Z" fill="#303030"/>
<path d="M78.1295 23.3044C79.1586 23.2387 79.4999 23.1371 79.4999 22.7383V6.13997C79.4999 4.5075 79.2951 4.20652 78.3356 3.90679L77.3761 3.54016L84.5403 1.27354V11.6728H84.5745C86.3229 10.2731 88.3797 8.77445 90.5049 8.77445C91.6351 8.77445 92.5263 9.17327 93.3506 9.97464C94.1382 10.7748 94.4808 12.3069 94.4808 13.9419V22.742C94.4808 22.9749 94.6527 23.1087 96.1597 23.3081L96.5364 23.3415L96.6388 23.9076H87.7615L87.8639 23.3415L88.4467 23.3081C89.5769 23.2424 89.5441 23.0096 89.5441 22.742V14.9092C89.5441 12.4432 88.4809 11.809 86.8703 11.809C85.8753 11.809 85.0536 12.1422 84.4708 12.4754V22.7742C84.4708 23.0752 84.6427 23.209 85.8071 23.3068L86.3557 23.3403L86.4569 23.9063H77.5429L78.1257 23.3056L78.1295 23.3044Z" fill="#303030"/>
<path d="M112.373 23.4712L112.27 19.2055L113.229 19.2736L114.155 21.1401C115.321 22.806 116.247 23.6743 118.029 23.6743C119.812 23.6743 120.737 22.7416 120.737 21.3073C120.737 19.7405 118.989 19.1398 117.07 18.4066C114.466 17.4405 112.338 16.4075 112.338 13.6739C112.338 10.7075 114.807 8.80748 118.507 8.80748C119.741 8.80748 121.147 9.04034 122.072 9.34007L123.75 8.80748L123.923 13.7742L123.032 13.8077L120.428 10.0758C119.879 9.77482 119.297 9.5432 118.473 9.5432C116.999 9.5432 116.074 10.3768 116.074 11.7417C116.074 13.2429 117.651 13.8089 119.707 14.5744C122.072 15.507 124.608 16.4744 124.608 19.4073C124.608 22.0071 122.516 24.3741 117.924 24.3741C115.832 24.3741 113.71 24.0075 112.371 23.4724" fill="#303030"/>
<path d="M126.127 31.705L126.848 31.6369C127.808 31.5712 128.186 31.5031 128.186 31.103V14.0055C128.186 11.9383 127.947 11.6708 126.78 11.3376L126.059 11.1704L133.191 8.93349L133.122 11.7723L133.26 11.838C134.528 10.2712 136.414 8.905 138.504 8.905C141.965 8.905 144.71 12.0052 144.71 16.1037C144.71 21.4024 140.39 24.37 136.173 24.37C134.905 24.37 133.876 24.1706 133.26 23.9031H133.158V31.1699C133.158 31.4374 133.362 31.6047 134.77 31.6369L135.936 31.705L136.04 32.271H126.03L126.134 31.705H126.127ZM139.36 17.4389C139.36 14.0377 137.886 11.6732 135.589 11.6732C134.526 11.6732 133.806 12.0746 133.154 12.5403V20.9726C134.251 22.6397 135.553 23.6727 136.514 23.6727C138.297 23.6727 139.36 21.006 139.36 17.4389Z" fill="#303030"/>
<path d="M146.845 16.8441C146.845 12.1449 150.548 8.61245 155.346 8.61245C159.391 8.61245 161.481 11.1132 161.481 13.6126C161.481 13.9458 161.447 14.3124 161.379 14.6134C161.379 14.6134 153.46 14.5131 152.122 14.4462C152.088 14.7472 152.088 15.2798 152.088 15.5808C152.122 19.0798 153.974 21.5136 156.989 21.5136C158.876 21.5136 160.281 20.6119 161.207 18.9472L161.618 19.1467C160.417 22.4797 158.019 24.345 154.247 24.345C150.068 24.3438 146.845 21.2114 146.845 16.8441ZM156.89 13.8121C156.924 11.6136 156.443 9.44602 154.868 9.44602C153.532 9.44602 152.365 10.9794 152.126 13.8455L156.892 13.8121H156.89Z" fill="#303030"/>
<path d="M163.686 16.9389C163.686 12.2397 167.386 8.70724 172.186 8.70724C176.232 8.70724 178.322 11.208 178.322 13.7074C178.322 14.0406 178.287 14.4072 178.218 14.7082C178.218 14.7082 170.3 14.6079 168.961 14.541C168.927 14.842 168.927 15.3746 168.927 15.6755C168.961 19.1746 170.813 21.6084 173.829 21.6084C175.715 21.6084 177.121 20.7067 178.046 19.042L178.457 19.2415C177.256 22.5745 174.858 24.4398 171.087 24.4398C166.903 24.4398 163.682 21.3074 163.682 16.9402H163.686V16.9389ZM173.727 13.9068C173.762 11.7083 173.282 9.54081 171.706 9.54081C170.37 9.54081 169.203 11.0742 168.964 13.9403L173.727 13.9068Z" fill="#303030"/>
<path d="M192.185 21.4396L192.117 21.3739C190.883 22.9729 188.861 24.3738 186.839 24.3738C183.341 24.3738 180.633 21.2079 180.633 17.107C180.633 11.8083 184.952 8.9075 189.375 8.9075C190.609 8.9075 191.5 9.07471 192.153 9.30633C192.153 9.30633 192.187 9.37197 192.187 9.30633V5.77387C192.187 4.10672 191.948 3.7401 191.02 3.50725L189.718 3.14062L197.155 0.791016V20.3385C197.155 21.9709 197.362 22.3388 198.356 22.6051L199.316 22.8379L199.247 23.2702L192.187 24.4023V21.4358V21.4396H192.185ZM192.185 20.6048V12.3409C191.156 10.7084 189.854 9.64075 188.963 9.64075C187.078 9.64075 186.016 12.2406 186.016 15.8411C186.016 19.4417 187.49 21.7083 189.684 21.7083C190.713 21.7083 191.466 21.2079 192.187 20.6085" fill="#303030"/>
<path d="M110.15 21.005C109.532 21.4719 108.606 21.9042 107.372 21.9042C105.556 21.9042 104.665 21.0706 104.699 18.4374L104.8 11.4381H109.633L110.078 9.37091H104.834L104.868 5.44829L100.098 6.95442L100.125 9.361H99.2335L98.8327 9.75116L97.0919 11.4431H97.4332L100.137 11.5397L99.9996 19.4047C99.9313 22.7043 101.405 24.3046 104.56 24.3046C106.925 24.3046 108.707 23.1044 110.285 21.4373L110.147 21.005H110.15Z" fill="#303030"/>
</svg>
